<mxfile host="app.diagrams.net" agent="Mozilla/5.0 (Windows NT 10.0; Win64; x64) AppleWebKit/537.36 (KHTML, like Gecko) Chrome/128.0.0.0 Safari/537.36" version="24.7.14" pages="2">
  <diagram name="Page-1" id="f7MyqALn6O6I_QcErSfi">
    <mxGraphModel dx="727" dy="557" grid="1" gridSize="10" guides="1" tooltips="1" connect="0" arrows="1" fold="1" page="1" pageScale="1" pageWidth="827" pageHeight="1169" math="0" shadow="0">
      <root>
        <mxCell id="0" />
        <mxCell id="1" parent="0" />
        <mxCell id="-Bq9ceSqidsH0R7OqUcR-1" value="" style="fontColor=#0066CC;verticalAlign=top;verticalLabelPosition=bottom;labelPosition=center;align=center;html=1;outlineConnect=0;fillColor=#CCCCCC;strokeColor=#6881B3;gradientColor=none;gradientDirection=north;strokeWidth=2;shape=mxgraph.networks.server;" vertex="1" parent="1">
          <mxGeometry x="205" y="680" width="90" height="100" as="geometry" />
        </mxCell>
        <mxCell id="-Bq9ceSqidsH0R7OqUcR-2" value="" style="fontColor=#0066CC;verticalAlign=top;verticalLabelPosition=bottom;labelPosition=center;align=center;html=1;outlineConnect=0;fillColor=#CCCCCC;strokeColor=#6881B3;gradientColor=none;gradientDirection=north;strokeWidth=2;shape=mxgraph.networks.server;" vertex="1" parent="1">
          <mxGeometry x="560" y="680" width="90" height="100" as="geometry" />
        </mxCell>
        <mxCell id="mCTkROmVJ6pk2tm3Dvbj-1" value="" style="fontColor=#0066CC;verticalAlign=top;verticalLabelPosition=bottom;labelPosition=center;align=center;html=1;outlineConnect=0;fillColor=#CCCCCC;strokeColor=#6881B3;gradientColor=none;gradientDirection=north;strokeWidth=2;shape=mxgraph.networks.switch;" vertex="1" parent="1">
          <mxGeometry x="280" y="520" width="100" height="30" as="geometry" />
        </mxCell>
        <mxCell id="mCTkROmVJ6pk2tm3Dvbj-2" value="" style="fontColor=#0066CC;verticalAlign=top;verticalLabelPosition=bottom;labelPosition=center;align=center;html=1;outlineConnect=0;fillColor=#CCCCCC;strokeColor=#6881B3;gradientColor=none;gradientDirection=north;strokeWidth=2;shape=mxgraph.networks.switch;" vertex="1" parent="1">
          <mxGeometry x="465" y="520" width="100" height="30" as="geometry" />
        </mxCell>
        <mxCell id="mCTkROmVJ6pk2tm3Dvbj-12" value="" style="fontColor=#0066CC;verticalAlign=top;verticalLabelPosition=bottom;labelPosition=center;align=center;html=1;outlineConnect=0;fillColor=#CCCCCC;strokeColor=#6881B3;gradientColor=none;gradientDirection=north;strokeWidth=2;shape=mxgraph.networks.terminal;" vertex="1" parent="1">
          <mxGeometry x="750" y="680" width="100" height="95" as="geometry" />
        </mxCell>
        <mxCell id="mCTkROmVJ6pk2tm3Dvbj-13" value="" style="fontColor=#0066CC;verticalAlign=top;verticalLabelPosition=bottom;labelPosition=center;align=center;html=1;outlineConnect=0;fillColor=#CCCCCC;strokeColor=#6881B3;gradientColor=none;gradientDirection=north;strokeWidth=2;shape=mxgraph.networks.firewall;" vertex="1" parent="1">
          <mxGeometry x="390" y="290" width="100" height="100" as="geometry" />
        </mxCell>
        <mxCell id="mCTkROmVJ6pk2tm3Dvbj-14" value="" style="fontColor=#0066CC;verticalAlign=top;verticalLabelPosition=bottom;labelPosition=center;align=center;html=1;outlineConnect=0;fillColor=#CCCCCC;strokeColor=#6881B3;gradientColor=none;gradientDirection=north;strokeWidth=2;shape=mxgraph.networks.router;" vertex="1" parent="1">
          <mxGeometry x="390" y="180" width="100" height="30" as="geometry" />
        </mxCell>
        <mxCell id="9kpErOnE_JxhofI5fTfF-28" style="edgeStyle=elbowEdgeStyle;shape=link;rounded=0;orthogonalLoop=1;jettySize=auto;elbow=vertical;html=1;" edge="1" parent="1" source="9kpErOnE_JxhofI5fTfF-1" target="mCTkROmVJ6pk2tm3Dvbj-1">
          <mxGeometry relative="1" as="geometry" />
        </mxCell>
        <mxCell id="9kpErOnE_JxhofI5fTfF-29" style="edgeStyle=elbowEdgeStyle;shape=link;rounded=0;orthogonalLoop=1;jettySize=auto;elbow=vertical;html=1;" edge="1" parent="1" source="9kpErOnE_JxhofI5fTfF-1" target="mCTkROmVJ6pk2tm3Dvbj-2">
          <mxGeometry relative="1" as="geometry" />
        </mxCell>
        <mxCell id="9kpErOnE_JxhofI5fTfF-1" value="Firewall" style="whiteSpace=wrap;html=1;" vertex="1" parent="1">
          <mxGeometry x="380" y="400" width="120" height="20" as="geometry" />
        </mxCell>
        <mxCell id="9kpErOnE_JxhofI5fTfF-20" style="edgeStyle=none;shape=link;rounded=0;orthogonalLoop=1;jettySize=auto;html=1;" edge="1" parent="1" source="9kpErOnE_JxhofI5fTfF-2" target="mCTkROmVJ6pk2tm3Dvbj-13">
          <mxGeometry relative="1" as="geometry" />
        </mxCell>
        <mxCell id="9kpErOnE_JxhofI5fTfF-2" value="Router" style="whiteSpace=wrap;html=1;" vertex="1" parent="1">
          <mxGeometry x="380" y="220" width="120" height="20" as="geometry" />
        </mxCell>
        <mxCell id="9kpErOnE_JxhofI5fTfF-18" style="rounded=0;orthogonalLoop=1;jettySize=auto;html=1;shape=link;" edge="1" parent="1" source="9kpErOnE_JxhofI5fTfF-3" target="mCTkROmVJ6pk2tm3Dvbj-14">
          <mxGeometry relative="1" as="geometry" />
        </mxCell>
        <mxCell id="9kpErOnE_JxhofI5fTfF-3" value="Internet" style="whiteSpace=wrap;html=1;" vertex="1" parent="1">
          <mxGeometry x="375" y="110" width="120" height="20" as="geometry" />
        </mxCell>
        <mxCell id="9kpErOnE_JxhofI5fTfF-51" style="edgeStyle=elbowEdgeStyle;shape=link;rounded=0;orthogonalLoop=1;jettySize=auto;elbow=vertical;html=1;" edge="1" parent="1" source="9kpErOnE_JxhofI5fTfF-4" target="9kpErOnE_JxhofI5fTfF-40">
          <mxGeometry relative="1" as="geometry" />
        </mxCell>
        <mxCell id="9kpErOnE_JxhofI5fTfF-4" value="Server 1&lt;div&gt;(&lt;span class=&quot;hljs-attribute&quot;&gt;IP&lt;/span&gt;: &lt;span class=&quot;hljs-number&quot;&gt;192.168&lt;/span&gt;.&lt;span class=&quot;hljs-number&quot;&gt;1.10&lt;/span&gt;)&lt;br&gt;&lt;/div&gt;" style="whiteSpace=wrap;html=1;" vertex="1" parent="1">
          <mxGeometry x="190" y="790" width="120" height="30" as="geometry" />
        </mxCell>
        <mxCell id="9kpErOnE_JxhofI5fTfF-46" style="edgeStyle=elbowEdgeStyle;shape=link;rounded=0;orthogonalLoop=1;jettySize=auto;elbow=vertical;html=1;" edge="1" parent="1" source="9kpErOnE_JxhofI5fTfF-5" target="-Bq9ceSqidsH0R7OqUcR-1">
          <mxGeometry relative="1" as="geometry" />
        </mxCell>
        <mxCell id="9kpErOnE_JxhofI5fTfF-47" style="edgeStyle=elbowEdgeStyle;shape=link;rounded=0;orthogonalLoop=1;jettySize=auto;elbow=vertical;html=1;" edge="1" parent="1" source="9kpErOnE_JxhofI5fTfF-5" target="9kpErOnE_JxhofI5fTfF-34">
          <mxGeometry relative="1" as="geometry" />
        </mxCell>
        <mxCell id="9kpErOnE_JxhofI5fTfF-5" value="Switch 1&lt;div&gt;(&lt;span class=&quot;hljs-attribute&quot;&gt;IP&lt;/span&gt;:&lt;span class=&quot;hljs-number&quot;&gt;192.168&lt;/span&gt;.&lt;span class=&quot;hljs-number&quot;&gt;1.2&lt;/span&gt;)&lt;/div&gt;" style="whiteSpace=wrap;html=1;" vertex="1" parent="1">
          <mxGeometry x="274" y="560" width="120" height="30" as="geometry" />
        </mxCell>
        <mxCell id="9kpErOnE_JxhofI5fTfF-39" style="edgeStyle=elbowEdgeStyle;shape=link;rounded=0;orthogonalLoop=1;jettySize=auto;elbow=vertical;html=1;" edge="1" parent="1" source="9kpErOnE_JxhofI5fTfF-7" target="9kpErOnE_JxhofI5fTfF-37">
          <mxGeometry relative="1" as="geometry" />
        </mxCell>
        <mxCell id="9kpErOnE_JxhofI5fTfF-7" value="Server 2&lt;div&gt;&amp;nbsp;(&lt;span class=&quot;hljs-attribute&quot;&gt;IP&lt;/span&gt;: &lt;span class=&quot;hljs-number&quot;&gt;192.168&lt;/span&gt;.&lt;span class=&quot;hljs-number&quot;&gt;1.11&lt;/span&gt;)&lt;br&gt;&lt;/div&gt;" style="whiteSpace=wrap;html=1;" vertex="1" parent="1">
          <mxGeometry x="550" y="790" width="120" height="30" as="geometry" />
        </mxCell>
        <mxCell id="9kpErOnE_JxhofI5fTfF-50" style="edgeStyle=elbowEdgeStyle;shape=link;rounded=0;orthogonalLoop=1;jettySize=auto;elbow=vertical;html=1;" edge="1" parent="1" source="9kpErOnE_JxhofI5fTfF-8" target="9kpErOnE_JxhofI5fTfF-44">
          <mxGeometry relative="1" as="geometry" />
        </mxCell>
        <mxCell id="9kpErOnE_JxhofI5fTfF-8" value="Workstation 9&lt;div&gt;(&lt;span class=&quot;hljs-attribute&quot;&gt;IP&lt;/span&gt;: &lt;span class=&quot;hljs-number&quot;&gt;192.168&lt;/span&gt;.&lt;span class=&quot;hljs-number&quot;&gt;1.28&lt;/span&gt;)&lt;br&gt;&lt;/div&gt;" style="whiteSpace=wrap;html=1;" vertex="1" parent="1">
          <mxGeometry x="740" y="790" width="120" height="30" as="geometry" />
        </mxCell>
        <mxCell id="9kpErOnE_JxhofI5fTfF-48" style="edgeStyle=elbowEdgeStyle;shape=link;rounded=0;orthogonalLoop=1;jettySize=auto;elbow=vertical;html=1;" edge="1" parent="1" source="9kpErOnE_JxhofI5fTfF-30" target="-Bq9ceSqidsH0R7OqUcR-2">
          <mxGeometry relative="1" as="geometry" />
        </mxCell>
        <mxCell id="9kpErOnE_JxhofI5fTfF-49" style="edgeStyle=elbowEdgeStyle;shape=link;rounded=0;orthogonalLoop=1;jettySize=auto;elbow=vertical;html=1;" edge="1" parent="1" source="9kpErOnE_JxhofI5fTfF-30" target="mCTkROmVJ6pk2tm3Dvbj-12">
          <mxGeometry relative="1" as="geometry" />
        </mxCell>
        <mxCell id="9kpErOnE_JxhofI5fTfF-30" value="Switch 2&lt;div&gt;(&lt;span class=&quot;hljs-attribute&quot;&gt;IP&lt;/span&gt;:&lt;span class=&quot;hljs-number&quot;&gt;192.168&lt;/span&gt;.&lt;span class=&quot;hljs-number&quot;&gt;1.3&lt;/span&gt;)&lt;/div&gt;" style="whiteSpace=wrap;html=1;" vertex="1" parent="1">
          <mxGeometry x="474" y="560" width="120" height="30" as="geometry" />
        </mxCell>
        <mxCell id="9kpErOnE_JxhofI5fTfF-34" value="" style="fontColor=#0066CC;verticalAlign=top;verticalLabelPosition=bottom;labelPosition=center;align=center;html=1;outlineConnect=0;fillColor=#CCCCCC;strokeColor=#6881B3;gradientColor=none;gradientDirection=north;strokeWidth=2;shape=mxgraph.networks.terminal;" vertex="1" parent="1">
          <mxGeometry x="359" y="680" width="100" height="95" as="geometry" />
        </mxCell>
        <mxCell id="9kpErOnE_JxhofI5fTfF-52" style="edgeStyle=elbowEdgeStyle;shape=link;rounded=0;orthogonalLoop=1;jettySize=auto;elbow=vertical;html=1;" edge="1" parent="1" source="9kpErOnE_JxhofI5fTfF-35" target="9kpErOnE_JxhofI5fTfF-42">
          <mxGeometry relative="1" as="geometry" />
        </mxCell>
        <mxCell id="9kpErOnE_JxhofI5fTfF-35" value="Workstation 1&lt;div&gt;(&lt;span class=&quot;hljs-attribute&quot;&gt;IP&lt;/span&gt;: &lt;span class=&quot;hljs-number&quot;&gt;192.168&lt;/span&gt;.&lt;span class=&quot;hljs-number&quot;&gt;1.20&lt;/span&gt;)&lt;br&gt;&lt;/div&gt;" style="whiteSpace=wrap;html=1;" vertex="1" parent="1">
          <mxGeometry x="360" y="792.5" width="120" height="30" as="geometry" />
        </mxCell>
        <mxCell id="9kpErOnE_JxhofI5fTfF-37" value="" style="fontColor=#0066CC;verticalAlign=top;verticalLabelPosition=bottom;labelPosition=center;align=center;html=1;outlineConnect=0;fillColor=#CCCCCC;strokeColor=#6881B3;gradientColor=none;gradientDirection=north;strokeWidth=2;shape=mxgraph.networks.terminal;" vertex="1" parent="1">
          <mxGeometry x="560" y="870" width="100" height="95" as="geometry" />
        </mxCell>
        <mxCell id="9kpErOnE_JxhofI5fTfF-38" value="Workstation 10&lt;div&gt;(&lt;span class=&quot;hljs-attribute&quot;&gt;IP&lt;/span&gt;: &lt;span class=&quot;hljs-number&quot;&gt;192.168&lt;/span&gt;.&lt;span class=&quot;hljs-number&quot;&gt;1.29&lt;/span&gt;)&lt;br&gt;&lt;/div&gt;" style="whiteSpace=wrap;html=1;" vertex="1" parent="1">
          <mxGeometry x="550" y="982.5" width="120" height="30" as="geometry" />
        </mxCell>
        <mxCell id="9kpErOnE_JxhofI5fTfF-40" value="" style="fontColor=#0066CC;verticalAlign=top;verticalLabelPosition=bottom;labelPosition=center;align=center;html=1;outlineConnect=0;fillColor=#CCCCCC;strokeColor=#6881B3;gradientColor=none;gradientDirection=north;strokeWidth=2;shape=mxgraph.networks.terminal;" vertex="1" parent="1">
          <mxGeometry x="200" y="870" width="100" height="95" as="geometry" />
        </mxCell>
        <mxCell id="9kpErOnE_JxhofI5fTfF-61" style="edgeStyle=elbowEdgeStyle;shape=link;rounded=0;orthogonalLoop=1;jettySize=auto;elbow=vertical;html=1;" edge="1" parent="1" source="9kpErOnE_JxhofI5fTfF-41" target="9kpErOnE_JxhofI5fTfF-53">
          <mxGeometry relative="1" as="geometry" />
        </mxCell>
        <mxCell id="9kpErOnE_JxhofI5fTfF-41" value="Workstation 3&lt;div&gt;(&lt;span class=&quot;hljs-attribute&quot;&gt;IP&lt;/span&gt;: &lt;span class=&quot;hljs-number&quot;&gt;192.168&lt;/span&gt;.&lt;span class=&quot;hljs-number&quot;&gt;1.22&lt;/span&gt;)&lt;br&gt;&lt;/div&gt;" style="whiteSpace=wrap;html=1;" vertex="1" parent="1">
          <mxGeometry x="201" y="982.5" width="120" height="30" as="geometry" />
        </mxCell>
        <mxCell id="9kpErOnE_JxhofI5fTfF-42" value="" style="fontColor=#0066CC;verticalAlign=top;verticalLabelPosition=bottom;labelPosition=center;align=center;html=1;outlineConnect=0;fillColor=#CCCCCC;strokeColor=#6881B3;gradientColor=none;gradientDirection=north;strokeWidth=2;shape=mxgraph.networks.terminal;" vertex="1" parent="1">
          <mxGeometry x="369" y="870" width="100" height="95" as="geometry" />
        </mxCell>
        <mxCell id="9kpErOnE_JxhofI5fTfF-43" value="Workstation 2&lt;div&gt;(&lt;span class=&quot;hljs-attribute&quot;&gt;IP&lt;/span&gt;: &lt;span class=&quot;hljs-number&quot;&gt;192.168&lt;/span&gt;.&lt;span class=&quot;hljs-number&quot;&gt;1.21&lt;/span&gt;)&lt;br&gt;&lt;/div&gt;" style="whiteSpace=wrap;html=1;" vertex="1" parent="1">
          <mxGeometry x="370" y="982.5" width="120" height="30" as="geometry" />
        </mxCell>
        <mxCell id="9kpErOnE_JxhofI5fTfF-44" value="" style="fontColor=#0066CC;verticalAlign=top;verticalLabelPosition=bottom;labelPosition=center;align=center;html=1;outlineConnect=0;fillColor=#CCCCCC;strokeColor=#6881B3;gradientColor=none;gradientDirection=north;strokeWidth=2;shape=mxgraph.networks.terminal;" vertex="1" parent="1">
          <mxGeometry x="750" y="870" width="100" height="95" as="geometry" />
        </mxCell>
        <mxCell id="9kpErOnE_JxhofI5fTfF-45" value="Workstation 4&lt;div&gt;(&lt;span class=&quot;hljs-attribute&quot;&gt;IP&lt;/span&gt;: &lt;span class=&quot;hljs-number&quot;&gt;192.168&lt;/span&gt;.&lt;span class=&quot;hljs-number&quot;&gt;1.23&lt;/span&gt;)&lt;br&gt;&lt;/div&gt;" style="whiteSpace=wrap;html=1;" vertex="1" parent="1">
          <mxGeometry x="740" y="982.5" width="120" height="30" as="geometry" />
        </mxCell>
        <mxCell id="9kpErOnE_JxhofI5fTfF-53" value="" style="fontColor=#0066CC;verticalAlign=top;verticalLabelPosition=bottom;labelPosition=center;align=center;html=1;outlineConnect=0;fillColor=#CCCCCC;strokeColor=#6881B3;gradientColor=none;gradientDirection=north;strokeWidth=2;shape=mxgraph.networks.terminal;" vertex="1" parent="1">
          <mxGeometry x="205" y="1070" width="100" height="95" as="geometry" />
        </mxCell>
        <mxCell id="9kpErOnE_JxhofI5fTfF-62" style="edgeStyle=elbowEdgeStyle;shape=link;rounded=0;orthogonalLoop=1;jettySize=auto;elbow=vertical;html=1;" edge="1" parent="1" source="9kpErOnE_JxhofI5fTfF-54" target="9kpErOnE_JxhofI5fTfF-59">
          <mxGeometry relative="1" as="geometry" />
        </mxCell>
        <mxCell id="9kpErOnE_JxhofI5fTfF-54" value="Workstation 5&lt;div&gt;(&lt;span class=&quot;hljs-attribute&quot;&gt;IP&lt;/span&gt;: &lt;span class=&quot;hljs-number&quot;&gt;192.168&lt;/span&gt;.&lt;span class=&quot;hljs-number&quot;&gt;1.24&lt;/span&gt;)&lt;br&gt;&lt;/div&gt;" style="whiteSpace=wrap;html=1;" vertex="1" parent="1">
          <mxGeometry x="206" y="1182.5" width="120" height="30" as="geometry" />
        </mxCell>
        <mxCell id="9kpErOnE_JxhofI5fTfF-55" value="" style="fontColor=#0066CC;verticalAlign=top;verticalLabelPosition=bottom;labelPosition=center;align=center;html=1;outlineConnect=0;fillColor=#CCCCCC;strokeColor=#6881B3;gradientColor=none;gradientDirection=north;strokeWidth=2;shape=mxgraph.networks.terminal;" vertex="1" parent="1">
          <mxGeometry x="205.5" y="1470" width="100" height="95" as="geometry" />
        </mxCell>
        <mxCell id="9kpErOnE_JxhofI5fTfF-65" style="edgeStyle=elbowEdgeStyle;shape=link;rounded=0;orthogonalLoop=1;jettySize=auto;elbow=vertical;html=1;" edge="1" parent="1" source="9kpErOnE_JxhofI5fTfF-56" target="9kpErOnE_JxhofI5fTfF-57">
          <mxGeometry relative="1" as="geometry" />
        </mxCell>
        <mxCell id="9kpErOnE_JxhofI5fTfF-56" value="Workstation 7&lt;div&gt;(&lt;span class=&quot;hljs-attribute&quot;&gt;IP&lt;/span&gt;: &lt;span class=&quot;hljs-number&quot;&gt;192.168&lt;/span&gt;.&lt;span class=&quot;hljs-number&quot;&gt;1.26&lt;/span&gt;)&lt;br&gt;&lt;/div&gt;" style="whiteSpace=wrap;html=1;" vertex="1" parent="1">
          <mxGeometry x="206.5" y="1582.5" width="120" height="30" as="geometry" />
        </mxCell>
        <mxCell id="9kpErOnE_JxhofI5fTfF-57" value="" style="fontColor=#0066CC;verticalAlign=top;verticalLabelPosition=bottom;labelPosition=center;align=center;html=1;outlineConnect=0;fillColor=#CCCCCC;strokeColor=#6881B3;gradientColor=none;gradientDirection=north;strokeWidth=2;shape=mxgraph.networks.terminal;" vertex="1" parent="1">
          <mxGeometry x="211.5" y="1670" width="100" height="95" as="geometry" />
        </mxCell>
        <mxCell id="9kpErOnE_JxhofI5fTfF-58" value="Workstation 8&lt;div&gt;(&lt;span class=&quot;hljs-attribute&quot;&gt;IP&lt;/span&gt;: &lt;span class=&quot;hljs-number&quot;&gt;192.168&lt;/span&gt;.&lt;span class=&quot;hljs-number&quot;&gt;1.27&lt;/span&gt;)&lt;br&gt;&lt;/div&gt;" style="whiteSpace=wrap;html=1;" vertex="1" parent="1">
          <mxGeometry x="206.5" y="1777.5" width="120" height="30" as="geometry" />
        </mxCell>
        <mxCell id="9kpErOnE_JxhofI5fTfF-59" value="" style="fontColor=#0066CC;verticalAlign=top;verticalLabelPosition=bottom;labelPosition=center;align=center;html=1;outlineConnect=0;fillColor=#CCCCCC;strokeColor=#6881B3;gradientColor=none;gradientDirection=north;strokeWidth=2;shape=mxgraph.networks.terminal;" vertex="1" parent="1">
          <mxGeometry x="194.5" y="1272.5" width="100" height="95" as="geometry" />
        </mxCell>
        <mxCell id="9kpErOnE_JxhofI5fTfF-63" style="edgeStyle=elbowEdgeStyle;shape=link;rounded=0;orthogonalLoop=1;jettySize=auto;elbow=vertical;html=1;" edge="1" parent="1" source="9kpErOnE_JxhofI5fTfF-60" target="9kpErOnE_JxhofI5fTfF-55">
          <mxGeometry relative="1" as="geometry" />
        </mxCell>
        <mxCell id="9kpErOnE_JxhofI5fTfF-60" value="Workstation 6&lt;div&gt;(&lt;span class=&quot;hljs-attribute&quot;&gt;IP&lt;/span&gt;: &lt;span class=&quot;hljs-number&quot;&gt;192.168&lt;/span&gt;.&lt;span class=&quot;hljs-number&quot;&gt;1.25&lt;/span&gt;)&lt;br&gt;&lt;/div&gt;" style="whiteSpace=wrap;html=1;" vertex="1" parent="1">
          <mxGeometry x="195.5" y="1385" width="120" height="30" as="geometry" />
        </mxCell>
      </root>
    </mxGraphModel>
  </diagram>
  <diagram id="BV5Io04-d0xhkD0BYNCp" name="Page-2">
    <mxGraphModel dx="723" dy="557" grid="1" gridSize="10" guides="1" tooltips="1" connect="1" arrows="1" fold="1" page="1" pageScale="1" pageWidth="827" pageHeight="1169" math="0" shadow="0">
      <root>
        <mxCell id="0" />
        <mxCell id="1" parent="0" />
      </root>
    </mxGraphModel>
  </diagram>
</mxfile>
